<?xml version="1.0" encoding="UTF-8" standalone="no"?>
<!DOCTYPE svg PUBLIC "-//W3C//DTD SVG 1.1//EN" "http://www.w3.org/Graphics/SVG/1.1/DTD/svg11.dtd">
<svg width="100%" height="100%" viewBox="0 0 1012 300" version="1.1" xmlns="http://www.w3.org/2000/svg" xmlns:xlink="http://www.w3.org/1999/xlink" xml:space="preserve" xmlns:serif="http://www.serif.com/" style="fill-rule:evenodd;clip-rule:evenodd;stroke-linejoin:round;stroke-miterlimit:2;">
    <g transform="matrix(1,0,0,1,0,-26.8629)">
        <g id="logo" transform="matrix(1,0,0,1,0,26.8629)">
            <rect x="0" y="0" width="1012" height="300" style="fill:none;"/>
            <g transform="matrix(1.77409,0,0,1.77409,-413.647,-44.2183)">
                <path d="M297.89,157.694C294.994,157.694 292.147,156.873 289.347,155.232C286.548,153.591 282.992,151.065 278.68,147.654C275.462,145.08 272.711,143.004 270.426,141.428C268.142,139.851 265.664,138.516 262.993,137.422C260.322,136.327 257.603,135.78 254.836,135.78C253.871,135.78 253.131,135.813 252.616,135.877L266.999,68.978C262.687,70.716 259.357,73.371 257.008,76.943C254.659,80.514 253.484,84.874 253.484,90.023C253.484,92.404 253.71,94.061 254.16,94.995C254.611,95.928 254.836,96.459 254.836,96.587C251.361,96.587 248.77,95.863 247.065,94.415C245.359,92.967 244.507,90.57 244.507,87.223C244.507,83.105 246.196,79.098 249.575,75.205C252.954,71.311 257.282,68.158 262.559,65.745C267.836,63.331 273.113,62.124 278.39,62.124C279.291,62.124 280.579,62.189 282.252,62.318L267.385,131.629C269.187,132.08 271.038,132.74 272.936,133.608C274.835,134.477 277.135,135.652 279.838,137.132C284.022,139.384 287.593,141.106 290.554,142.297C293.514,143.487 296.603,144.082 299.821,144.082C302.717,144.082 305.42,143.568 307.93,142.538C307.415,147.236 306.273,150.936 304.503,153.639C302.733,156.342 300.529,157.694 297.89,157.694Z" style="fill:white;fill-rule:nonzero;"/>
                <path d="M292.098,134.139C288.43,134.139 285.373,132.884 282.928,130.374C280.482,127.865 279.259,123.939 279.259,118.597C279.259,113.835 280.208,108.831 282.107,103.586C284.006,98.341 286.837,93.9 290.602,90.264C294.367,86.628 298.856,84.81 304.069,84.81C306.707,84.81 308.67,85.261 309.957,86.162C311.244,87.063 311.888,88.253 311.888,89.733L311.888,90.409L312.95,85.293L326.851,85.293L319.9,118.115C319.643,119.08 319.514,120.11 319.514,121.204C319.514,122.491 319.82,123.408 320.431,123.955C321.043,124.502 322.056,124.775 323.472,124.775C324.373,124.775 325.081,124.647 325.596,124.389C324.18,127.993 322.829,130.519 321.541,131.967C320.254,133.415 318.388,134.139 315.942,134.139C313.304,134.139 311.164,133.351 309.523,131.774C307.882,130.197 306.868,127.993 306.482,125.162C302.556,131.147 297.762,134.139 292.098,134.139ZM298.373,124.775C299.982,124.775 301.575,124.019 303.152,122.507C304.728,120.995 305.806,118.919 306.385,116.28L311.019,94.464C311.019,93.627 310.697,92.806 310.054,92.002C309.41,91.197 308.413,90.795 307.061,90.795C304.487,90.795 302.17,92.292 300.111,95.284C298.051,98.277 296.442,101.881 295.284,106.096C294.126,110.311 293.546,114.028 293.546,117.246C293.546,120.464 294.013,122.523 294.946,123.424C295.879,124.325 297.022,124.775 298.373,124.775Z" style="fill:white;fill-rule:nonzero;"/>
                <path d="M337.856,157.694C334.831,157.694 332.176,156.712 329.892,154.749C327.607,152.787 326.465,150.293 326.465,147.268C326.465,144.501 327.173,142.216 328.588,140.414C330.004,138.612 331.838,137.18 334.091,136.118C336.343,135.056 339.336,133.946 343.069,132.788L354.749,77.667C356.036,71.488 358.305,67.209 361.555,64.827C364.805,62.446 368.393,61.256 372.319,61.256C375.343,61.256 377.998,62.237 380.283,64.2C382.567,66.163 383.71,68.657 383.71,71.681C383.71,73.162 383.613,74.481 383.42,75.639L378.883,75.639C379.012,74.223 379.076,73.355 379.076,73.033C379.076,72.003 378.722,71.199 378.014,70.62C377.306,70.04 376.437,69.751 375.408,69.751C374.056,69.751 372.737,70.346 371.45,71.537C370.163,72.727 369.23,74.771 368.65,77.667L367.009,85.293L374.056,85.293L373.381,89.154L366.237,89.154L355.136,141.283C353.848,147.525 351.628,151.821 348.475,154.17C345.321,156.519 341.782,157.694 337.856,157.694ZM335.635,149.102C338.21,149.102 340.044,146.592 341.138,141.573L342.393,135.973C338.982,137.132 336.36,138.467 334.525,139.98C332.691,141.492 331.774,143.471 331.774,145.917C331.774,146.689 332.16,147.413 332.933,148.089C333.705,148.764 334.606,149.102 335.635,149.102Z" style="fill:white;fill-rule:nonzero;"/>
                <path d="M378.883,85.293L392.784,85.293L391.529,91.278C393.717,89.347 395.696,87.867 397.466,86.837C399.236,85.808 401.15,85.293 403.21,85.293C405.269,85.293 406.894,86.001 408.085,87.417C409.275,88.832 409.871,90.538 409.871,92.533C409.871,94.399 409.259,96.04 408.037,97.456C406.814,98.872 405.108,99.58 402.92,99.58C401.504,99.58 400.555,99.242 400.072,98.566C399.59,97.891 399.22,96.909 398.962,95.622C398.769,94.785 398.576,94.174 398.383,93.788C398.19,93.402 397.836,93.209 397.321,93.209C395.97,93.209 394.827,93.482 393.894,94.029C392.961,94.576 391.754,95.525 390.274,96.877L382.551,133.56L368.65,133.56L378.883,85.293Z" style="fill:white;fill-rule:nonzero;"/>
                <path d="M422.42,134.139C417.658,134.139 413.957,132.9 411.319,130.423C408.68,127.945 407.361,124.068 407.361,118.79C407.361,114.35 408.23,109.459 409.967,104.117C411.705,98.775 414.537,94.158 418.462,90.264C422.388,86.371 427.376,84.424 433.425,84.424C440.504,84.424 444.044,87.513 444.044,93.691C444.044,97.295 443.014,100.61 440.955,103.634C438.895,106.659 436.16,109.089 432.749,110.923C429.338,112.757 425.702,113.803 421.841,114.06C421.712,115.991 421.648,117.278 421.648,117.922C421.648,121.075 422.195,123.215 423.289,124.341C424.383,125.467 426.153,126.03 428.598,126.03C432.074,126.03 435.05,125.226 437.528,123.617C440.006,122.008 442.725,119.563 445.685,116.28L448.967,116.28C441.824,128.186 432.975,134.139 422.42,134.139ZM422.613,109.426C424.994,109.298 427.263,108.461 429.419,106.917C431.575,105.372 433.313,103.409 434.632,101.028C435.951,98.647 436.611,96.137 436.611,93.498C436.611,90.86 435.806,89.54 434.197,89.54C431.881,89.54 429.612,91.568 427.392,95.622C425.171,99.676 423.579,104.278 422.613,109.426Z" style="fill:white;fill-rule:nonzero;"/>
                <path d="M480.534,134.139C476.608,134.139 473.728,133.094 471.894,131.002C470.06,128.91 469.143,126.32 469.143,123.231C469.143,121.879 469.304,120.351 469.626,118.646C469.947,116.94 470.285,115.283 470.639,113.674C470.993,112.065 471.235,111.035 471.363,110.585C471.878,108.332 472.361,106.112 472.811,103.924C473.262,101.736 473.487,99.966 473.487,98.615C473.487,95.332 472.329,93.691 470.012,93.691C468.339,93.691 466.858,94.512 465.571,96.153C464.284,97.794 463.254,99.934 462.482,102.572L455.918,133.56L442.017,133.56L452.249,85.293L466.15,85.293L465.089,90.313C468.306,86.709 472.071,84.907 476.383,84.907C479.665,84.907 482.272,85.808 484.202,87.61C486.133,89.412 487.098,92.147 487.098,95.815C487.098,97.681 486.873,99.757 486.423,102.042C485.972,104.326 485.329,107.11 484.492,110.392C483.977,112.387 483.511,114.334 483.092,116.232C482.674,118.131 482.465,119.627 482.465,120.721C482.465,122.008 482.754,123.006 483.334,123.714C483.913,124.422 484.91,124.775 486.326,124.775C488.257,124.775 489.801,124.084 490.96,122.7C492.118,121.316 493.277,119.176 494.435,116.28L498.49,116.28C496.108,123.36 493.357,128.106 490.236,130.519C487.115,132.933 483.881,134.139 480.534,134.139Z" style="fill:white;fill-rule:nonzero;"/>
                <path d="M508.24,134.139C503.477,134.139 499.777,132.9 497.138,130.423C494.499,127.945 493.18,124.068 493.18,118.79C493.18,114.35 494.065,109.459 495.835,104.117C497.605,98.775 500.436,94.158 504.33,90.264C508.223,86.371 513.163,84.424 519.148,84.424C523.009,84.424 525.761,85.261 527.402,86.934C529.043,88.607 529.863,90.731 529.863,93.305C529.863,95.558 529.381,97.295 528.415,98.518C527.45,99.741 526.227,100.352 524.747,100.352C523.653,100.352 522.527,99.966 521.368,99.194C522.141,97.07 522.527,95.171 522.527,93.498C522.527,92.275 522.301,91.31 521.851,90.602C521.4,89.894 520.725,89.54 519.824,89.54C517.893,89.54 515.962,91.117 514.032,94.271C512.101,97.424 510.524,101.253 509.301,105.758C508.079,110.263 507.467,114.318 507.467,117.922C507.467,121.075 508.014,123.215 509.108,124.341C510.202,125.467 511.972,126.03 514.418,126.03C517.893,126.03 520.869,125.226 523.347,123.617C525.825,122.008 528.544,119.563 531.504,116.28L534.787,116.28C527.643,128.186 518.794,134.139 508.24,134.139Z" style="fill:white;fill-rule:nonzero;"/>
                <path d="M564.616,134.139C561.205,134.139 558.727,133.11 557.183,131.05C555.638,128.991 554.866,126.384 554.866,123.231C554.866,121.879 555.027,120.351 555.348,118.646C555.67,116.94 556.008,115.283 556.362,113.674C556.716,112.065 556.957,111.035 557.086,110.585C557.601,108.332 558.084,106.112 558.534,103.924C558.985,101.736 559.21,99.966 559.21,98.615C559.21,95.332 558.051,93.691 555.735,93.691C554.19,93.691 552.79,94.399 551.535,95.815C550.28,97.231 549.267,99.097 548.494,101.414L541.641,133.56L527.74,133.56L541.737,67.917L556.024,65.986L550.811,90.216C554.029,86.676 557.794,84.907 562.106,84.907C565.388,84.907 567.994,85.808 569.925,87.61C571.856,89.412 572.821,92.147 572.821,95.815C572.821,97.681 572.596,99.757 572.145,102.042C571.695,104.326 571.051,107.11 570.215,110.392C569.7,112.387 569.233,114.334 568.815,116.232C568.397,118.131 568.188,119.627 568.188,120.721C568.188,122.008 568.477,123.006 569.056,123.714C569.636,124.422 570.633,124.775 572.049,124.775C573.593,124.775 574.655,124.582 575.235,124.196C574.848,127.478 573.674,129.956 571.711,131.629C569.748,133.303 567.383,134.139 564.616,134.139Z" style="fill:white;fill-rule:nonzero;"/>
                <path d="M607.188,134.139C604.098,134.139 601.492,133.544 599.368,132.353C597.244,131.163 595.668,129.618 594.638,127.72C593.608,125.821 593.093,123.842 593.093,121.783C593.093,119.659 593.592,117.809 594.59,116.232C595.587,114.655 596.794,113.513 598.21,112.805C600.72,108.3 602.908,103.747 604.774,99.146C606.641,94.544 608.41,89.572 610.084,84.231L624.371,82.3C624.693,90.538 625.24,99.451 626.012,109.04C626.334,112.902 626.494,115.701 626.494,117.439C626.494,118.919 626.366,120.142 626.108,121.107C629.133,119.37 631.45,117.761 633.059,116.28L637.113,116.28C632.995,121.043 628.071,125.065 622.344,128.347C620.477,130.342 618.176,131.806 615.441,132.74C612.706,133.673 609.955,134.139 607.188,134.139ZM604.098,126.513C606.48,126.513 608.475,125.805 610.084,124.389C611.693,122.973 612.497,120.689 612.497,117.535C612.497,115.605 612.304,112.902 611.918,109.426C611.274,102.09 610.856,97.167 610.663,94.657C609.118,99.741 606.512,105.822 602.844,112.902C604.324,113.674 605.064,114.8 605.064,116.28C605.064,117.503 604.662,118.597 603.857,119.563C603.053,120.528 602.039,121.011 600.816,121.011C599.465,121.011 598.596,120.592 598.21,119.756C598.21,122.072 598.676,123.778 599.61,124.872C600.543,125.966 602.039,126.513 604.098,126.513Z" style="fill:white;fill-rule:nonzero;"/>
                <path d="M642.616,134.139C639.527,134.139 637.033,133.174 635.134,131.243C633.236,129.313 632.287,126.417 632.287,122.555C632.287,120.946 632.544,118.855 633.059,116.28L638.851,89.154L635.665,89.154L636.438,85.293L639.623,85.293L642.519,71.971L656.806,70.04L653.524,85.293L659.316,85.293L658.544,89.154L652.752,89.154L646.574,118.115C646.316,119.08 646.188,120.11 646.188,121.204C646.188,122.491 646.493,123.408 647.105,123.955C647.716,124.502 648.73,124.775 650.145,124.775C652.012,124.775 653.749,123.987 655.358,122.41C656.967,120.834 658.126,118.79 658.834,116.28L662.888,116.28C660.507,123.231 657.45,127.945 653.717,130.423C649.985,132.9 646.284,134.139 642.616,134.139Z" style="fill:white;fill-rule:nonzero;"/>
                <path d="M670.418,134.139C666.749,134.139 663.693,132.884 661.247,130.374C658.801,127.865 657.579,123.939 657.579,118.597C657.579,113.835 658.528,108.831 660.426,103.586C662.325,98.341 665.157,93.9 668.921,90.264C672.686,86.628 677.175,84.81 682.388,84.81C685.027,84.81 686.99,85.261 688.277,86.162C689.564,87.063 690.207,88.253 690.207,89.733L690.207,90.409L691.269,85.293L705.17,85.293L698.22,118.115C697.962,119.08 697.834,120.11 697.834,121.204C697.834,123.971 699.153,125.355 701.792,125.355C703.594,125.355 705.154,124.518 706.473,122.845C707.793,121.172 708.839,118.983 709.611,116.28L713.665,116.28C711.284,123.231 708.34,127.945 704.832,130.423C701.325,132.9 697.801,134.139 694.262,134.139C691.559,134.139 689.387,133.383 687.746,131.871C686.105,130.358 685.123,128.154 684.801,125.258C682.935,127.897 680.86,130.037 678.575,131.678C676.29,133.319 673.571,134.139 670.418,134.139ZM676.693,124.775C678.301,124.775 679.894,124.019 681.471,122.507C683.048,120.995 684.126,118.919 684.705,116.28L689.339,94.464C689.339,93.627 689.017,92.806 688.373,92.002C687.73,91.197 686.732,90.795 685.381,90.795C682.806,90.795 680.49,92.292 678.43,95.284C676.371,98.277 674.762,101.881 673.603,106.096C672.445,110.311 671.866,114.028 671.866,117.246C671.866,120.464 672.332,122.523 673.266,123.424C674.199,124.325 675.341,124.775 676.693,124.775Z" style="fill:white;fill-rule:nonzero;"/>
                <path d="M723.415,134.139C718.653,134.139 714.952,132.9 712.314,130.423C709.675,127.945 708.356,124.068 708.356,118.79C708.356,114.35 709.241,109.459 711.011,104.117C712.78,98.775 715.612,94.158 719.506,90.264C723.399,86.371 728.339,84.424 734.324,84.424C738.185,84.424 740.936,85.261 742.577,86.934C744.219,88.607 745.039,90.731 745.039,93.305C745.039,95.558 744.556,97.295 743.591,98.518C742.626,99.741 741.403,100.352 739.923,100.352C738.829,100.352 737.702,99.966 736.544,99.194C737.316,97.07 737.702,95.171 737.702,93.498C737.702,92.275 737.477,91.31 737.027,90.602C736.576,89.894 735.9,89.54 734.999,89.54C733.069,89.54 731.138,91.117 729.207,94.271C727.277,97.424 725.7,101.253 724.477,105.758C723.254,110.263 722.643,114.318 722.643,117.922C722.643,121.075 723.19,123.215 724.284,124.341C725.378,125.467 727.148,126.03 729.594,126.03C733.069,126.03 736.045,125.226 738.523,123.617C741.001,122.008 743.72,119.563 746.68,116.28L749.962,116.28C742.819,128.186 733.97,134.139 723.415,134.139Z" style="fill:white;fill-rule:nonzero;"/>
                <path d="M782.977,134.139C778.987,134.139 775.962,133.19 773.903,131.292C771.844,129.393 770.814,126.674 770.814,123.134C770.814,121.59 771.007,119.917 771.393,118.115L772.165,114.35C772.423,113.256 772.551,112.065 772.551,110.778C772.551,107.689 771.393,106.144 769.076,106.144C768.047,106.144 766.969,106.434 765.842,107.013C764.716,107.592 763.413,108.493 761.933,109.716L756.913,133.56L743.012,133.56L757.009,67.917L771.297,65.986L764.056,99.966L782.688,85.293L792.245,85.293L772.938,98.711C773.903,98.454 774.965,98.325 776.123,98.325C779.599,98.325 782.237,99.387 784.039,101.511C785.841,103.634 786.742,106.337 786.742,109.62C786.742,110.971 786.613,112.194 786.356,113.288L785.294,118.115C784.972,119.273 784.811,120.303 784.811,121.204C784.811,123.585 786.066,124.775 788.576,124.775C789.992,124.775 790.893,124.679 791.279,124.486C791.665,124.293 791.891,124.196 791.955,124.196C791.826,126.32 791.231,128.122 790.169,129.602C789.107,131.082 787.884,132.209 786.501,132.981C785.117,133.753 783.943,134.139 782.977,134.139Z" style="fill:white;fill-rule:nonzero;"/>
            </g>
        </g>
    </g>
</svg>
