<?xml version="1.0" encoding="UTF-8" standalone="no"?>
<!DOCTYPE svg PUBLIC "-//W3C//DTD SVG 1.1//EN" "http://www.w3.org/Graphics/SVG/1.1/DTD/svg11.dtd">
<svg width="100%" height="100%" viewBox="0 0 1012 300" version="1.1" xmlns="http://www.w3.org/2000/svg" xmlns:xlink="http://www.w3.org/1999/xlink" xml:space="preserve" xmlns:serif="http://www.serif.com/" style="fill-rule:evenodd;clip-rule:evenodd;stroke-linejoin:round;stroke-miterlimit:2;">
    <g transform="matrix(1,0,0,1,0,-26.8629)">
        <g id="logo" transform="matrix(1,0,0,1,0,26.8629)">
            <rect x="0" y="0" width="1012" height="300" style="fill:none;"/>
            <g transform="matrix(1.77409,0,0,1.77409,-413.647,-44.2183)">
                <g transform="matrix(96.5347,0,0,96.5347,280.514,133.56)">
                    <path d="M0.12,0.006C0.082,0.006 0.05,-0.007 0.025,-0.033C-0,-0.059 -0.013,-0.1 -0.013,-0.155C-0.013,-0.204 -0.003,-0.256 0.017,-0.311C0.036,-0.365 0.066,-0.411 0.105,-0.449C0.143,-0.486 0.19,-0.505 0.244,-0.505C0.271,-0.505 0.292,-0.5 0.305,-0.491C0.318,-0.482 0.325,-0.469 0.325,-0.454L0.325,-0.447L0.336,-0.5L0.48,-0.5L0.408,-0.16C0.405,-0.15 0.404,-0.139 0.404,-0.128C0.404,-0.115 0.407,-0.105 0.414,-0.1C0.42,-0.094 0.43,-0.091 0.445,-0.091C0.454,-0.091 0.462,-0.092 0.467,-0.095C0.452,-0.058 0.438,-0.032 0.425,-0.017C0.412,-0.002 0.392,0.006 0.367,0.006C0.34,0.006 0.318,-0.002 0.301,-0.019C0.284,-0.035 0.273,-0.058 0.269,-0.087C0.228,-0.025 0.179,0.006 0.12,0.006ZM0.185,-0.091C0.202,-0.091 0.218,-0.099 0.235,-0.115C0.251,-0.13 0.262,-0.152 0.268,-0.179L0.316,-0.405C0.316,-0.414 0.313,-0.422 0.306,-0.431C0.299,-0.439 0.289,-0.443 0.275,-0.443C0.248,-0.443 0.224,-0.428 0.203,-0.397C0.182,-0.366 0.165,-0.328 0.153,-0.285C0.141,-0.241 0.135,-0.202 0.135,-0.169C0.135,-0.136 0.14,-0.114 0.15,-0.105C0.159,-0.096 0.171,-0.091 0.185,-0.091Z" style="fill:white;fill-rule:nonzero;"/>
                </g>
                <g transform="matrix(96.5347,0,0,96.5347,280.514,133.56)">
                </g>
                <g transform="matrix(96.5347,0,0,96.5347,531.504,133.56)">
                    <path d="M0.343,0.006C0.308,0.006 0.282,-0.005 0.266,-0.026C0.25,-0.047 0.242,-0.074 0.242,-0.107C0.242,-0.121 0.244,-0.137 0.247,-0.155C0.25,-0.172 0.254,-0.189 0.258,-0.206C0.261,-0.223 0.264,-0.233 0.265,-0.238C0.27,-0.261 0.275,-0.284 0.28,-0.307C0.285,-0.33 0.287,-0.348 0.287,-0.362C0.287,-0.396 0.275,-0.413 0.251,-0.413C0.235,-0.413 0.221,-0.406 0.208,-0.391C0.195,-0.376 0.184,-0.357 0.176,-0.333L0.105,-0L-0.039,-0L0.106,-0.68L0.254,-0.7L0.2,-0.449C0.233,-0.486 0.272,-0.504 0.317,-0.504C0.351,-0.504 0.378,-0.495 0.398,-0.476C0.418,-0.457 0.428,-0.429 0.428,-0.391C0.428,-0.372 0.426,-0.35 0.421,-0.327C0.416,-0.303 0.41,-0.274 0.401,-0.24C0.396,-0.219 0.391,-0.199 0.387,-0.18C0.382,-0.16 0.38,-0.144 0.38,-0.133C0.38,-0.12 0.383,-0.109 0.389,-0.102C0.395,-0.095 0.405,-0.091 0.42,-0.091C0.436,-0.091 0.447,-0.093 0.453,-0.097C0.449,-0.063 0.437,-0.037 0.417,-0.02C0.396,-0.003 0.372,0.006 0.343,0.006Z" style="fill:white;fill-rule:nonzero;"/>
                </g>
                <g transform="matrix(96.5347,0,0,96.5347,531.504,133.56)">
                </g>
                <g transform="matrix(96.5347,0,0,96.5347,746.68,133.56)">
                    <path d="M0.376,0.006C0.335,0.006 0.303,-0.004 0.282,-0.024C0.261,-0.043 0.25,-0.071 0.25,-0.108C0.25,-0.124 0.252,-0.141 0.256,-0.16L0.264,-0.199C0.267,-0.21 0.268,-0.223 0.268,-0.236C0.268,-0.268 0.256,-0.284 0.232,-0.284C0.221,-0.284 0.21,-0.281 0.199,-0.275C0.187,-0.269 0.173,-0.26 0.158,-0.247L0.106,-0L-0.038,-0L0.107,-0.68L0.255,-0.7L0.18,-0.348L0.373,-0.5L0.472,-0.5L0.272,-0.361C0.282,-0.364 0.293,-0.365 0.305,-0.365C0.341,-0.365 0.368,-0.354 0.387,-0.332C0.406,-0.31 0.415,-0.282 0.415,-0.248C0.415,-0.234 0.414,-0.221 0.411,-0.21L0.4,-0.16C0.397,-0.148 0.395,-0.137 0.395,-0.128C0.395,-0.103 0.408,-0.091 0.434,-0.091C0.449,-0.091 0.458,-0.092 0.462,-0.094C0.466,-0.096 0.468,-0.097 0.469,-0.097C0.468,-0.075 0.462,-0.056 0.451,-0.041C0.44,-0.026 0.427,-0.014 0.413,-0.006C0.398,0.002 0.386,0.006 0.376,0.006Z" style="fill:white;fill-rule:nonzero;"/>
                </g>
                <g transform="matrix(96.5347,0,0,96.5347,746.68,133.56)">
                </g>
                <g transform="matrix(96.5347,0,0,96.5347,792.245,133.56)">
                </g>
                <text x="243.928px" y="133.56px" style="font-family:'Lobster-Regular', 'Lobster';font-size:96.535px;fill:white;">L<tspan x="325.596px " y="133.56px "> </tspan>frenc<tspan x="575.235px " y="133.56px "> </tspan>stac</text>
            </g>
        </g>
    </g>
</svg>
